# Blender v2.91.2 OBJ File: ''
# www.blender.org
mtllib floor.mtl
o Cube
v -12.533502 -0.144328 12.840966
v -12.533502 0.144328 12.840966
v -12.533502 -0.144328 -12.840966
v -12.533502 0.144328 -12.840966
v 12.533502 -0.144328 12.840966
v 12.533502 0.144328 12.840966
v 12.533502 -0.144328 -12.840966
v 12.533502 0.144328 -12.840966
vt 0.758087 0.500225
vt 0.547339 0.500225
vt 0.547339 0.999775
vt 0.758087 0.999775
vt 0.335916 0.499775
vt 0.335916 0.000225
vt 0.125169 0.000225
vt 0.125169 0.499775
vt 0.547001 0.499775
vt 0.547001 0.000225
vt 0.336254 0.000225
vt 0.336254 0.499775
vt 0.758087 0.000225
vt 0.547339 0.000225
vt 0.547339 0.499775
vt 0.758087 0.499775
vt 0.335916 0.999775
vt 0.335916 0.500225
vt 0.125169 0.500225
vt 0.125169 0.999775
vt 0.547001 0.999775
vt 0.547001 0.500225
vt 0.336254 0.500225
vt 0.336254 0.999775
vn -0.5773 -0.5773 0.5773
vn -0.5773 -0.5773 -0.5773
vn 0.5773 -0.5773 -0.5773
vn 0.5773 -0.5773 0.5773
vn -0.5773 0.5773 -0.5773
vn 0.5773 0.5773 -0.5773
vn 0.5773 0.5773 0.5773
vn -0.5773 0.5773 0.5773
usemtl Material
s 1
f 1/1/1 3/2/2 7/3/3 5/4/4
f 4/5/5 8/6/6 7/7/3 3/8/2
f 8/9/6 6/10/7 5/11/4 7/12/3
f 6/13/7 8/14/6 4/15/5 2/16/8
f 2/17/8 4/18/5 3/19/2 1/20/1
f 6/21/7 2/22/8 1/23/1 5/24/4
